<svg xmlns="http://www.w3.org/2000/svg" width="32" height="26" viewBox="0 0 32 26">
  <path fill="#2E2F30" d="M31.9323467,3.0782241 C30.7551797,3.59915433 29.4968288,3.95095137 28.1708245,4.11331924 C29.5238901,3.30147992 30.5657505,2.01606765 31.0528541,0.487103594 C29.7877378,1.23805497 28.387315,1.78604651 26.8921776,2.0769556 C25.6947146,0.798308668 23.989852,0 22.1090909,0 C18.4896406,0 15.5602537,2.93615222 15.5602537,6.55560254 C15.5602537,7.06976744 15.6143763,7.57040169 15.7293869,8.05073996 C10.2832981,7.78012685 5.45285412,5.16871036 2.22579281,1.197463 C1.66427061,2.16490486 1.33953488,3.29471459 1.33953488,4.49217759 C1.33953488,6.7653277 2.50317125,8.77463002 4.26215645,9.95179704 C3.17970402,9.92473573 2.16490486,9.62706131 1.28541226,9.13319239 C1.28541226,9.1602537 1.28541226,9.18731501 1.28541226,9.21437632 C1.28541226,12.3940803 3.54503171,15.0393235 6.54207188,15.6414376 C5.99408034,15.7902748 5.41226216,15.8714588 4.81691332,15.8714588 C4.397463,15.8714588 3.98477801,15.8308668 3.58562368,15.7496829 C4.41775899,18.354334 6.8397463,20.2486258 9.70824524,20.3027484 C7.46892178,22.0617336 4.6410148,23.1103594 1.56955603,23.1103594 C1.04186047,23.1103594 0.520930233,23.0765328 0.0067653277,23.0156448 C2.89556025,24.8964059 6.33911205,25.9788584 10.032981,25.9788584 C22.0955603,25.9788584 28.6849894,15.9864693 28.6849894,7.32008457 C28.6849894,7.0359408 28.6782241,6.75179704 28.6646934,6.4744186 C29.9433404,5.54756871 31.0528541,4.397463 31.9323467,3.0782241 Z"/>
</svg>
