<svg xmlns="http://www.w3.org/2000/svg" width="32" height="32" viewBox="0 0 32 32">
  <path fill="#2E2F30" d="M16.2901429,0 C7.61464286,0 0.581,6.97864286 0.581,15.588 C0.581,18.533 1.40471429,21.2872857 2.83521429,23.6370714 L0,32 L8.69742857,29.237 C10.948,30.4716429 13.5363571,31.176 16.2901429,31.176 C24.9667857,31.176 32,24.1963571 32,15.588 C32,6.97864286 24.9667857,0 16.2901429,0 Z M24.1017143,21.5078571 C23.7321429,22.4240714 22.0607143,23.2602143 21.3232143,23.2987143 C20.5865,23.3377857 20.5655,23.8697143 16.5489286,22.1248571 C12.5328571,20.3795714 10.1166429,16.136 9.92614286,15.8627143 C9.7355,15.5904286 8.37042857,13.6450714 8.44407143,11.6873571 C8.51821429,9.72928571 9.59028571,8.8055 9.97292857,8.42128571 C10.3551429,8.0365 10.7933571,7.96757143 11.0609286,7.96321429 C11.3772143,7.95807143 11.5820714,7.95378571 11.8161429,7.96242857 C12.05,7.97128571 12.4012857,7.9135 12.7054286,8.72235714 C13.0094286,9.53114286 13.7370714,11.519 13.8301429,11.7215714 C13.9231429,11.9243571 13.9807143,12.1591429 13.8374286,12.4195 C13.6937143,12.6804286 13.6201429,12.8434286 13.4116429,13.0682857 C13.202,13.2931429 12.9706429,13.5712857 12.7836429,13.7432143 C12.5750714,13.9335714 12.3572143,14.1412143 12.5765,14.5481429 C12.7956429,14.9547857 13.5517143,16.2878571 14.7035714,17.3864286 C16.1839286,18.7986429 17.4605714,19.2670714 17.8534286,19.4805 C18.2473571,19.6950714 18.4824286,19.6712143 18.7267143,19.4141429 C18.9698571,19.1570714 19.7723571,18.2894286 20.055,17.9020714 C20.3375,17.5136429 20.6022143,17.5897143 20.9651429,17.7357143 C21.3278571,17.8822857 23.2620714,18.9182857 23.6560714,19.1322143 C24.0496429,19.3457143 24.3127143,19.4557143 24.4067857,19.6250714 C24.5008571,19.7950714 24.4711429,20.5915714 24.1017143,21.5078571 Z"/>
</svg>
